# Blender v2.70 (sub 0) OBJ File: 'better_sticker.blend'
# www.blender.org
o Plane
v -0.722500 0.000000 0.850000
v -0.850000 0.000000 -0.722500
v 0.722500 0.000000 -0.850000
v 0.850000 0.000000 0.722500
v -0.840295 0.000000 -0.771292
v -0.812656 0.000000 -0.812656
v -0.771292 0.000000 -0.840295
v -0.722500 0.000000 -0.850000
v 0.771292 0.000000 -0.840295
v 0.812656 0.000000 -0.812656
v 0.840295 0.000000 -0.771292
v 0.850000 0.000000 -0.722500
v -0.771292 0.000000 0.840295
v -0.812656 0.000000 0.812656
v -0.840295 0.000000 0.771292
v -0.850000 0.000000 0.722500
v 0.840295 0.000000 0.771292
v 0.812656 0.000000 0.812656
v 0.771292 0.000000 0.840295
v 0.722500 0.000000 0.850000
vn 0.000000 1.000000 0.000000
s off
f 8//1 2//1 20//1
f 10//1 9//1 3//1
f 4//1 12//1 8//1
f 8//1 7//1 6//1
f 6//1 5//1 2//1
f 15//1 14//1 16//1
f 13//1 1//1 14//1
f 4//1 8//1 20//1
f 20//1 19//1 18//1
f 18//1 17//1 4//1
f 12//1 10//1 3//1
f 6//1 2//1 8//1
f 14//1 1//1 16//1
f 1//1 20//1 16//1
f 20//1 18//1 4//1
f 20//1 2//1 16//1
f 12//1 3//1 8//1
f 12//1 11//1 10//1
