# Blender v2.77 (sub 0) OBJ File: 'rubiks_cube.blend'
# www.blender.org
mtllib sticker.mtl
o Cube
v -0.844631 -0.988173 0.904088
v -0.905578 -0.973900 0.905578
v -0.844631 -0.954494 0.954494
v -0.902486 -0.946593 0.946593
v -0.904088 -0.988173 0.844631
v -0.946593 -0.946593 0.902486
v -0.934333 -0.934333 0.934333
v -0.904088 -0.844631 0.988173
v -0.905578 -0.905578 0.973900
v -0.954494 -0.844631 0.954494
v -0.946593 -0.902486 0.946593
v -0.844631 -0.904088 0.988173
v -0.988173 -0.904088 0.844631
v -0.973900 -0.905578 0.905578
v -0.954494 -0.954494 0.844631
v -0.988173 -0.844631 0.904088
v -0.988173 -0.844631 -0.904088
v -0.973900 -0.905578 -0.905578
v -0.954494 -0.844631 -0.954494
v -0.946593 -0.902486 -0.946593
v -0.988173 -0.904088 -0.844631
v -0.946593 -0.946593 -0.902486
v -0.934333 -0.934333 -0.934333
v -0.844631 -0.904088 -0.988173
v -0.905578 -0.905578 -0.973900
v -0.844631 -0.954494 -0.954494
v -0.902486 -0.946593 -0.946593
v -0.904088 -0.844631 -0.988173
v -0.904088 -0.988173 -0.844631
v -0.905578 -0.973900 -0.905578
v -0.954494 -0.954494 -0.844631
v -0.844631 -0.988173 -0.904088
v 0.904088 -0.844631 -0.988173
v 0.905578 -0.905578 -0.973900
v 0.954494 -0.844631 -0.954494
v 0.946593 -0.902486 -0.946593
v 0.844631 -0.904088 -0.988173
v 0.902486 -0.946593 -0.946593
v 0.934333 -0.934333 -0.934333
v 0.988173 -0.904088 -0.844631
v 0.973900 -0.905578 -0.905578
v 0.954494 -0.954494 -0.844631
v 0.946593 -0.946593 -0.902486
v 0.988173 -0.844631 -0.904088
v 0.844631 -0.988173 -0.904088
v 0.905578 -0.973900 -0.905578
v 0.844631 -0.954494 -0.954494
v 0.904088 -0.988173 -0.844631
v 0.988173 -0.844631 0.904088
v 0.973900 -0.905578 0.905578
v 0.954494 -0.844631 0.954494
v 0.946593 -0.902486 0.946593
v 0.988173 -0.904088 0.844631
v 0.946593 -0.946593 0.902486
v 0.934333 -0.934333 0.934333
v 0.844631 -0.904088 0.988173
v 0.905578 -0.905578 0.973900
v 0.844631 -0.954494 0.954494
v 0.902486 -0.946593 0.946593
v 0.904088 -0.844631 0.988173
v 0.904088 -0.988173 0.844631
v 0.905578 -0.973900 0.905578
v 0.954494 -0.954494 0.844631
v 0.844631 -0.988173 0.904088
v -0.988173 0.844631 0.904088
v -0.973900 0.905578 0.905578
v -0.954494 0.844631 0.954494
v -0.946593 0.902486 0.946593
v -0.988173 0.904088 0.844631
v -0.946593 0.946593 0.902486
v -0.934333 0.934333 0.934333
v -0.844631 0.904088 0.988173
v -0.905578 0.905578 0.973900
v -0.844631 0.954494 0.954494
v -0.902486 0.946593 0.946593
v -0.904088 0.844631 0.988173
v -0.904088 0.988173 0.844631
v -0.905578 0.973900 0.905578
v -0.954494 0.954494 0.844631
v -0.844631 0.988173 0.904088
v -0.988173 0.904088 -0.844631
v -0.973900 0.905578 -0.905578
v -0.954494 0.954494 -0.844631
v -0.946593 0.946593 -0.902486
v -0.988173 0.844631 -0.904088
v -0.946593 0.902486 -0.946593
v -0.934333 0.934333 -0.934333
v -0.844631 0.988173 -0.904088
v -0.905578 0.973900 -0.905578
v -0.844631 0.954494 -0.954494
v -0.902486 0.946593 -0.946593
v -0.904088 0.988173 -0.844631
v -0.904088 0.844631 -0.988173
v -0.905578 0.905578 -0.973900
v -0.954494 0.844631 -0.954494
v -0.844631 0.904088 -0.988173
v 0.844631 0.904088 -0.988173
v 0.905578 0.905578 -0.973900
v 0.844631 0.954494 -0.954494
v 0.902486 0.946593 -0.946593
v 0.904088 0.844631 -0.988173
v 0.946593 0.902486 -0.946593
v 0.934333 0.934333 -0.934333
v 0.904088 0.988173 -0.844631
v 0.905578 0.973900 -0.905578
v 0.954494 0.954494 -0.844631
v 0.946593 0.946593 -0.902486
v 0.844631 0.988173 -0.904088
v 0.988173 0.844631 -0.904088
v 0.973900 0.905578 -0.905578
v 0.954494 0.844631 -0.954494
v 0.988173 0.904088 -0.844631
v 0.988173 0.904088 0.844631
v 0.973900 0.905578 0.905578
v 0.954494 0.954494 0.844631
v 0.946593 0.946593 0.902486
v 0.988173 0.844631 0.904088
v 0.946593 0.902486 0.946593
v 0.934333 0.934333 0.934333
v 0.844631 0.988173 0.904088
v 0.905578 0.973900 0.905578
v 0.844631 0.954494 0.954494
v 0.902486 0.946593 0.946593
v 0.904088 0.988173 0.844631
v 0.904088 0.844631 0.988173
v 0.905578 0.905578 0.973900
v 0.954494 0.844631 0.954494
v 0.844631 0.904088 0.988173
v -0.844631 1.000000 0.844631
v 0.844631 1.000000 0.844631
v -1.000000 0.844631 0.844631
v -1.000000 0.844631 -0.844631
v -0.844631 -1.000000 -0.844631
v 0.844631 -1.000000 -0.844631
v 0.844631 -0.844631 1.000000
v 0.844631 0.844631 1.000000
v -0.844631 1.000000 -0.844631
v -0.844631 -0.844631 -1.000000
v -0.844631 0.844631 -1.000000
v 1.000000 0.844631 0.844631
v 1.000000 0.844631 -0.844631
v 0.844631 -1.000000 0.844631
v -0.844631 -1.000000 0.844631
v 0.844631 1.000000 -0.844631
v 0.844631 0.844631 -1.000000
v 0.844631 -0.844631 -1.000000
v -1.000000 -0.844631 -0.844631
v -0.844631 0.844631 1.000000
v -0.844631 -0.844631 1.000000
v 1.000000 -0.844631 0.844631
v 1.000000 -0.844631 -0.844631
v -1.000000 -0.844631 0.844631
v -0.694631 1.000000 0.844631
v -0.844631 1.000000 0.694631
v -0.740984 1.000000 0.837290
v -0.782799 1.000000 0.815984
v -0.815984 1.000000 0.782799
v -0.837289 1.000000 0.740984
v 0.844631 1.000000 0.694631
v 0.694631 1.000000 0.844631
v 0.837289 1.000000 0.740984
v 0.815984 1.000000 0.782799
v 0.782799 1.000000 0.815984
v 0.740984 1.000000 0.837290
v -1.000000 0.844631 0.694631
v -1.000000 0.694631 0.844631
v -1.000000 0.837289 0.740984
v -1.000000 0.815983 0.782799
v -1.000000 0.782799 0.815984
v -1.000000 0.740983 0.837290
v -1.000000 0.694631 -0.844631
v -1.000000 0.844631 -0.694631
v -1.000000 0.740984 -0.837289
v -1.000000 0.782799 -0.815983
v -1.000000 0.815984 -0.782799
v -1.000000 0.837290 -0.740983
v -0.694631 -1.000000 -0.844631
v -0.844631 -1.000000 -0.694631
v -0.740984 -1.000000 -0.837290
v -0.782799 -1.000000 -0.815984
v -0.815984 -1.000000 -0.782799
v -0.837289 -1.000000 -0.740984
v 0.844631 -1.000000 -0.694631
v 0.694631 -1.000000 -0.844631
v 0.837289 -1.000000 -0.740984
v 0.815984 -1.000000 -0.782799
v 0.782799 -1.000000 -0.815984
v 0.740984 -1.000000 -0.837290
v 0.844631 -0.694631 1.000000
v 0.694631 -0.844631 1.000000
v 0.837289 -0.740984 1.000000
v 0.815984 -0.782799 1.000000
v 0.782799 -0.815984 1.000000
v 0.740984 -0.837290 1.000000
v 0.694631 0.844631 1.000000
v 0.844631 0.694631 1.000000
v 0.740984 0.837289 1.000000
v 0.782799 0.815983 1.000000
v 0.815984 0.782799 1.000000
v 0.837289 0.740983 1.000000
v -0.844631 1.000000 -0.694631
v -0.694631 1.000000 -0.844631
v -0.837289 1.000000 -0.740983
v -0.815984 1.000000 -0.782799
v -0.782799 1.000000 -0.815983
v -0.740984 1.000000 -0.837289
v -0.844631 -0.694631 -1.000000
v -0.694631 -0.844631 -1.000000
v -0.837289 -0.740983 -1.000000
v -0.815984 -0.782799 -1.000000
v -0.782799 -0.815983 -1.000000
v -0.740984 -0.837289 -1.000000
v -0.694631 0.844631 -1.000000
v -0.844631 0.694631 -1.000000
v -0.740984 0.837290 -1.000000
v -0.782799 0.815984 -1.000000
v -0.815984 0.782799 -1.000000
v -0.837289 0.740984 -1.000000
v 1.000000 0.694631 0.844631
v 1.000000 0.844631 0.694631
v 1.000000 0.740983 0.837290
v 1.000000 0.782799 0.815984
v 1.000000 0.815984 0.782799
v 1.000000 0.837289 0.740984
v 1.000000 0.844631 -0.694631
v 1.000000 0.694631 -0.844631
v 1.000000 0.837290 -0.740983
v 1.000000 0.815984 -0.782799
v 1.000000 0.782799 -0.815984
v 1.000000 0.740984 -0.837289
v 0.694631 -1.000000 0.844631
v 0.844631 -1.000000 0.694631
v 0.740984 -1.000000 0.837289
v 0.782799 -1.000000 0.815983
v 0.815984 -1.000000 0.782799
v 0.837289 -1.000000 0.740983
v -0.844631 -1.000000 0.694631
v -0.694631 -1.000000 0.844631
v -0.837289 -1.000000 0.740983
v -0.815984 -1.000000 0.782799
v -0.782799 -1.000000 0.815983
v -0.740984 -1.000000 0.837289
v 0.694631 1.000000 -0.844631
v 0.844631 1.000000 -0.694631
v 0.740984 1.000000 -0.837289
v 0.782799 1.000000 -0.815983
v 0.815984 1.000000 -0.782799
v 0.837289 1.000000 -0.740983
v 0.844631 0.694631 -1.000000
v 0.694631 0.844631 -1.000000
v 0.837289 0.740984 -1.000000
v 0.815984 0.782799 -1.000000
v 0.782799 0.815984 -1.000000
v 0.740984 0.837290 -1.000000
v 0.694631 -0.844631 -1.000000
v 0.844631 -0.694631 -1.000000
v 0.740984 -0.837289 -1.000000
v 0.782799 -0.815983 -1.000000
v 0.815984 -0.782799 -1.000000
v 0.837289 -0.740983 -1.000000
v -1.000000 -0.844631 -0.694631
v -1.000000 -0.694631 -0.844631
v -1.000000 -0.837289 -0.740984
v -1.000000 -0.815983 -0.782799
v -1.000000 -0.782799 -0.815984
v -1.000000 -0.740983 -0.837290
v -0.844631 0.694631 1.000000
v -0.694631 0.844631 1.000000
v -0.837289 0.740983 1.000000
v -0.815984 0.782799 1.000000
v -0.782799 0.815983 1.000000
v -0.740984 0.837289 1.000000
v -0.694631 -0.844631 1.000000
v -0.844631 -0.694631 1.000000
v -0.740984 -0.837290 1.000000
v -0.782799 -0.815984 1.000000
v -0.815984 -0.782799 1.000000
v -0.837289 -0.740984 1.000000
v 1.000000 -0.844631 0.694631
v 1.000000 -0.694631 0.844631
v 1.000000 -0.837290 0.740983
v 1.000000 -0.815984 0.782799
v 1.000000 -0.782799 0.815984
v 1.000000 -0.740984 0.837289
v 1.000000 -0.694631 -0.844631
v 1.000000 -0.844631 -0.694631
v 1.000000 -0.740983 -0.837290
v 1.000000 -0.782799 -0.815984
v 1.000000 -0.815984 -0.782799
v 1.000000 -0.837289 -0.740984
v -1.000000 -0.694631 0.844631
v -1.000000 -0.844631 0.694631
v -1.000000 -0.740984 0.837289
v -1.000000 -0.782799 0.815983
v -1.000000 -0.815984 0.782799
v -1.000000 -0.837290 0.740983
vn -0.2049 0.9571 -0.2049
vn -0.1818 0.8152 0.5499
vn -0.8152 -0.5499 0.1818
vn -0.4931 0.4931 -0.7167
vn 0.2049 -0.2049 -0.9571
vn -0.5499 0.1818 -0.8152
vn -0.1818 0.5499 -0.8152
vn 0.4931 -0.7167 0.4931
vn 0.2049 -0.9571 0.2049
vn 0.8152 -0.5499 -0.1818
vn 0.1818 -0.8152 -0.5499
vn -0.7167 0.4931 0.4931
vn 0.9571 0.2049 0.2049
vn -0.8152 0.1818 0.5499
vn 0.8152 0.5499 -0.1818
vn -0.4931 -0.7167 0.4931
vn -0.1818 -0.5499 0.8152
vn -0.8152 0.5499 0.1818
vn 0.5499 0.1818 -0.8152
vn -0.4931 0.4931 0.7167
vn 0.9571 0.2049 -0.2049
vn 0.5499 -0.8152 -0.1818
vn 0.1818 0.8152 0.5499
vn 0.4931 -0.4931 0.7167
vn -0.2049 -0.2049 -0.9571
vn 0.5499 0.1818 0.8152
vn -0.5499 -0.1818 -0.8152
vn 0.4931 0.4931 0.7167
vn -0.2049 0.9571 0.2049
vn -0.5499 -0.8152 -0.1818
vn -0.8152 0.1818 -0.5499
vn -0.7167 0.4931 -0.4931
vn 0.2049 0.9571 -0.2049
vn 0.1818 -0.8152 0.5499
vn 0.5499 0.8152 0.1818
vn 0.4931 -0.4931 -0.7167
vn -0.9571 0.2049 0.2049
vn -0.1818 0.8152 -0.5499
vn -0.8152 0.5499 -0.1818
vn 0.7167 0.4931 -0.4931
vn 0.2049 0.2049 -0.9571
vn 0.5499 -0.1818 -0.8152
vn 0.1818 -0.5499 0.8152
vn 0.4931 -0.7167 -0.4931
vn -0.2049 -0.9571 0.2049
vn -0.5499 0.8152 -0.1818
vn 0.8152 0.1818 -0.5499
vn 0.4931 0.7167 0.4931
vn 0.2049 -0.9571 -0.2049
vn 0.8152 0.1818 0.5499
vn -0.5499 0.8152 0.1818
vn 0.7167 -0.4931 0.4931
vn 0.2049 0.2049 0.9571
vn 0.1818 0.5499 -0.8152
vn 0.1818 0.5499 0.8152
vn 0.4931 0.7167 -0.4931
vn -0.9571 0.2049 -0.2049
vn 0.8152 0.5499 0.1818
vn -0.8152 -0.1818 -0.5499
vn 0.2049 0.9571 0.2049
vn -0.1818 -0.8152 -0.5499
vn -0.1818 -0.8152 0.5499
vn -0.4931 0.7167 -0.4931
vn 0.9571 -0.2049 0.2049
vn -0.4931 -0.7167 -0.4931
vn -0.8152 -0.5499 -0.1818
vn 0.7167 0.4931 0.4931
vn 0.2049 -0.2049 0.9571
vn -0.1818 0.5499 0.8152
vn -0.5499 0.1818 0.8152
vn 0.7167 -0.4931 -0.4931
vn -0.2049 -0.2049 0.9571
vn -0.1818 -0.5499 -0.8152
vn 0.5499 -0.1818 0.8152
vn -0.4931 0.7167 0.4931
vn -0.2049 0.2049 0.9571
vn -0.5499 -0.8152 0.1818
vn -0.8152 -0.1818 0.5499
vn -0.4931 -0.4931 0.7167
vn -0.9571 -0.2049 -0.2049
vn 0.8152 -0.1818 0.5499
vn 0.5499 0.8152 -0.1818
vn 0.4931 0.4931 -0.7167
vn -0.9571 -0.2049 0.2049
vn 0.5499 -0.8152 0.1818
vn 0.1818 0.8152 -0.5499
vn -0.4931 -0.4931 -0.7167
vn -0.2049 -0.9571 -0.2049
vn 0.8152 -0.1818 -0.5499
vn 0.8152 -0.5499 0.1818
vn -0.7167 -0.4931 0.4931
vn -0.2049 0.2049 -0.9571
vn -0.5499 -0.1818 0.8152
vn 0.1818 -0.5499 -0.8152
vn -0.7167 -0.4931 -0.4931
vn -0.5556 -0.8315 -0.0000
vn 0.0000 -0.8315 -0.5556
vn 0.8315 -0.0000 0.5556
vn 0.5556 0.0000 -0.8315
vn 0.0000 -0.5556 -0.8315
vn 0.5556 -0.0000 0.8315
vn 0.1951 -0.9808 -0.0000
vn -0.5556 0.8315 0.0000
vn -0.8315 -0.0000 0.5556
vn -0.9808 0.1951 0.0000
vn 0.9808 -0.1951 -0.0000
vn 0.0000 0.8315 -0.5556
vn 0.5556 -0.8315 -0.0000
vn 0.1951 0.0000 -0.9808
vn 0.5556 0.8315 0.0000
vn 0.9571 -0.2049 -0.2049
vn 0.0000 -0.5556 0.8315
vn 0.0000 -0.1951 -0.9808
vn 0.0000 0.5556 -0.8315
vn 0.9808 0.1951 0.0000
vn -0.9808 -0.1951 -0.0000
vn 0.0000 0.1951 0.9808
vn -0.8315 0.5556 0.0000
vn -0.9808 0.0000 -0.1951
vn -0.9808 -0.0000 0.1951
vn -0.8315 -0.5556 -0.0000
vn 0.0000 -0.1951 0.9808
vn 0.0000 0.8315 0.5556
vn 0.0000 -0.8315 0.5556
vn 0.8315 0.5556 0.0000
vn 0.0000 -0.9808 0.1951
vn 0.0000 0.1951 -0.9808
vn 0.1951 -0.0000 0.9808
vn -0.1951 -0.9808 -0.0000
vn 0.0000 -0.9808 -0.1951
vn 0.8315 -0.5556 -0.0000
vn -0.8315 0.0000 -0.5556
vn -0.1951 -0.0000 0.9808
vn 0.8315 0.0000 -0.5556
vn 0.0000 0.5556 0.8315
vn 0.9808 0.0000 -0.1951
vn -0.5556 -0.0000 0.8315
vn -0.1951 0.0000 -0.9808
vn 0.9808 -0.0000 0.1951
vn -0.5556 0.0000 -0.8315
vn 0.1951 0.9808 0.0000
vn 0.0000 0.9808 0.1951
vn -0.1951 0.9808 0.0000
vn 0.0000 0.9808 -0.1951
vn 0.0000 -1.0000 -0.0000
vn 1.0000 0.0000 0.0000
vn 0.0000 1.0000 0.0000
vn -1.0000 0.0000 0.0000
vn 0.0000 0.0000 1.0000
vn 0.0000 0.0000 -1.0000
usemtl Cube
s 1
f 92//1 137//1 88//1 89//1
f 74//2 80//2 78//2 75//2
f 14//3 13//3 15//3 6//3
f 94//4 86//4 87//4 91//4
f 37//5 146//5 33//5 34//5
f 94//6 93//6 95//6 86//6
f 90//7 96//7 94//7 91//7
f 62//8 54//8 55//8 59//8
f 64//9 142//9 61//9 62//9
f 41//10 40//10 42//10 43//10
f 46//11 45//11 47//11 38//11
f 66//12 68//12 71//12 70//12
f 117//13 140//13 113//13 114//13
f 66//14 65//14 67//14 68//14
f 106//15 112//15 110//15 107//15
f 2//16 4//16 7//16 6//16
f 3//17 12//17 9//17 4//17
f 79//18 69//18 66//18 70//18
f 111//19 101//19 98//19 102//19
f 73//20 75//20 71//20 68//20
f 112//21 141//21 109//21 110//21
f 42//22 48//22 46//22 43//22
f 121//23 120//23 122//23 123//23
f 57//24 59//24 55//24 52//24
f 28//25 138//25 24//25 25//25
f 126//26 125//26 127//26 118//26
f 19//27 28//27 25//27 20//27
f 126//28 118//28 119//28 123//28
f 80//29 129//29 77//29 78//29
f 30//30 29//30 31//30 22//30
f 95//31 85//31 82//31 86//31
f 82//32 84//32 87//32 86//32
f 108//33 144//33 104//33 105//33
f 58//34 64//34 62//34 59//34
f 115//35 124//35 121//35 116//35
f 34//36 36//36 39//36 38//36
f 69//37 131//37 65//37 66//37
f 89//38 88//38 90//38 91//38
f 82//39 81//39 83//39 84//39
f 110//40 102//40 103//40 107//40
f 101//41 145//41 97//41 98//41
f 34//42 33//42 35//42 36//42
f 57//43 56//43 58//43 59//43
f 46//44 38//44 39//44 43//44
f 5//45 143//45 1//45 2//45
f 83//46 92//46 89//46 84//46
f 110//47 109//47 111//47 102//47
f 121//48 123//48 119//48 116//48
f 48//49 134//49 45//49 46//49
f 127//50 117//50 114//50 118//50
f 78//51 77//51 79//51 70//51
f 50//52 52//52 55//52 54//52
f 128//53 136//53 125//53 126//53
f 98//54 97//54 99//54 100//54
f 122//55 128//55 126//55 123//55
f 105//56 107//56 103//56 100//56
f 85//57 132//57 81//57 82//57
f 114//58 113//58 115//58 116//58
f 18//59 17//59 19//59 20//59
f 124//60 130//60 120//60 121//60
f 26//61 32//61 30//61 27//61
f 2//62 1//62 3//62 4//62
f 89//63 91//63 87//63 84//63
f 53//64 150//64 49//64 50//64
f 30//65 22//65 23//65 27//65
f 31//66 21//66 18//66 22//66
f 114//67 116//67 119//67 118//67
f 60//68 135//68 56//68 57//68
f 73//69 72//69 74//69 75//69
f 67//70 76//70 73//70 68//70
f 41//71 43//71 39//71 36//71
f 12//72 149//72 8//72 9//72
f 25//73 24//73 26//73 27//73
f 51//74 60//74 57//74 52//74
f 78//75 70//75 71//75 75//75
f 76//76 148//76 72//76 73//76
f 15//77 5//77 2//77 6//77
f 10//78 16//78 14//78 11//78
f 9//79 11//79 7//79 4//79
f 21//80 147//80 17//80 18//80
f 50//81 49//81 51//81 52//81
f 105//82 104//82 106//82 107//82
f 98//83 100//83 103//83 102//83
f 16//84 152//84 13//84 14//84
f 62//85 61//85 63//85 54//85
f 99//86 108//86 105//86 100//86
f 25//87 27//87 23//87 20//87
f 32//88 133//88 29//88 30//88
f 35//89 44//89 41//89 36//89
f 63//90 53//90 50//90 54//90
f 14//91 6//91 7//91 11//91
f 96//92 139//92 93//92 94//92
f 9//93 8//93 10//93 11//93
f 47//94 37//94 34//94 38//94
f 18//95 20//95 23//95 22//95
f 29//96 5//96 15//96 31//96
f 45//97 32//97 26//97 47//97
f 127//98 51//98 49//98 117//98
f 111//99 35//99 33//99 101//99
f 47//100 26//100 24//100 37//100
f 125//101 60//101 51//101 127//101
f 142//102 134//102 48//102 61//102
f 77//103 92//103 83//103 79//103
f 10//104 67//104 65//104 16//104
f 69//105 81//105 132//105 131//105
f 53//106 40//106 151//106 150//106
f 88//107 108//107 99//107 90//107
f 61//108 48//108 42//108 63//108
f 101//109 33//109 146//109 145//109
f 104//110 124//110 115//110 106//110
f 44//111 151//111 40//111 41//111
f 3//112 58//112 56//112 12//112
f 37//113 24//113 138//113 146//113
f 90//114 99//114 97//114 96//114
f 112//115 113//115 140//115 141//115
f 21//116 13//116 152//116 147//116
f 128//117 72//117 148//117 136//117
f 79//118 83//118 81//118 69//118
f 85//119 17//119 147//119 132//119
f 16//120 65//120 131//120 152//120
f 31//121 15//121 13//121 21//121
f 12//122 56//122 135//122 149//122
f 120//123 80//123 74//123 122//123
f 1//124 64//124 58//124 3//124
f 106//125 115//125 113//125 112//125
f 143//126 142//126 64//126 1//126
f 96//127 97//127 145//127 139//127
f 136//128 135//128 60//128 125//128
f 133//129 143//129 5//129 29//129
f 134//130 133//130 32//130 45//130
f 63//131 42//131 40//131 53//131
f 95//132 19//132 17//132 85//132
f 149//133 148//133 76//133 8//133
f 109//134 44//134 35//134 111//134
f 122//135 74//135 72//135 128//135
f 141//136 151//136 44//136 109//136
f 8//137 76//137 67//137 10//137
f 139//138 138//138 28//138 93//138
f 117//139 49//139 150//139 140//139
f 93//140 28//140 19//140 95//140
f 124//141 104//141 144//141 130//141
f 120//142 130//142 129//142 80//142
f 92//143 77//143 129//143 137//143
f 88//144 137//144 144//144 108//144
f 238//145 143//145 237//145 239//145 240//145 241//145 242//145
f 178//145 133//145 177//145 179//145 180//145 181//145 182//145
f 184//145 134//145 183//145 185//145 186//145 187//145 188//145
f 232//145 142//145 231//145 233//145 234//145 235//145 236//145
f 286//146 151//146 285//146 287//146 288//146 289//146 290//146
f 226//146 141//146 225//146 227//146 228//146 229//146 230//146
f 220//146 140//146 219//146 221//146 222//146 223//146 224//146
f 280//146 150//146 279//146 281//146 282//146 283//146 284//146
f 244//147 144//147 243//147 245//147 246//147 247//147 248//147
f 160//147 130//147 159//147 161//147 162//147 163//147 164//147
f 154//147 129//147 153//147 155//147 156//147 157//147 158//147
f 202//147 137//147 201//147 203//147 204//147 205//147 206//147
f 172//148 132//148 171//148 173//148 174//148 175//148 176//148
f 166//148 131//148 165//148 167//148 168//148 169//148 170//148
f 292//148 152//148 291//148 293//148 294//148 295//148 296//148
f 262//148 147//148 261//148 263//148 264//148 265//148 266//148
f 268//149 148//149 267//149 269//149 270//149 271//149 272//149
f 274//149 149//149 273//149 275//149 276//149 277//149 278//149
f 190//149 135//149 189//149 191//149 192//149 193//149 194//149
f 196//149 136//149 195//149 197//149 198//149 199//149 200//149
f 250//150 145//150 249//150 251//150 252//150 253//150 254//150
f 214//150 139//150 213//150 215//150 216//150 217//150 218//150
f 208//150 138//150 207//150 209//150 210//150 211//150 212//150
f 256//150 146//150 255//150 257//150 258//150 259//150 260//150
usemtl StickerBlue
f 190//149 194//149 193//149 192//149 191//149 189//149 196//149 200//149 199//149 198//149 197//149 195//149 268//149 272//149 271//149 270//149 269//149 267//149 274//149 278//149 277//149 276//149 275//149 273//149
usemtl StickerRed
f 172//148 176//148 175//148 174//148 173//148 171//148 262//148 266//148 265//148 264//148 263//148 261//148 292//148 296//148 295//148 294//148 293//148 291//148 166//148 170//148 169//148 168//148 167//148 165//148
usemtl StickerGreen
f 208//150 212//150 211//150 210//150 209//150 207//150 214//150 218//150 217//150 216//150 215//150 213//150 250//150 254//150 253//150 252//150 251//150 249//150 256//150 260//150 259//150 258//150 257//150 255//150
usemtl StickerOrange
f 226//146 230//146 229//146 228//146 227//146 225//146 220//146 224//146 223//146 222//146 221//146 219//146 280//146 284//146 283//146 282//146 281//146 279//146 286//146 290//146 289//146 288//146 287//146 285//146
usemtl StickerWhite
f 178//145 182//145 181//145 180//145 179//145 177//145 184//145 188//145 187//145 186//145 185//145 183//145 232//145 236//145 235//145 234//145 233//145 231//145 238//145 242//145 241//145 240//145 239//145 237//145
usemtl StickerYellow
f 244//147 248//147 247//147 246//147 245//147 243//147 202//147 206//147 205//147 204//147 203//147 201//147 154//147 158//147 157//147 156//147 155//147 153//147 160//147 164//147 163//147 162//147 161//147 159//147
